<svg width="121" height="56" viewBox="0 0 121 56" fill="none" xmlns="http://www.w3.org/2000/svg">
<path d="M21.0316 55.0933C32.6471 55.0933 42.0633 53.3904 42.0633 51.2897C42.0633 49.1891 32.6471 47.4861 21.0316 47.4861C9.41619 47.4861 0 49.1891 0 51.2897C0 53.3904 9.41619 55.0933 21.0316 55.0933Z" fill="#E6E6E6"/>
<path d="M42.6847 33.3829C42.4657 36.6752 40.1578 38.2534 38.2257 38.9981C36.9845 39.4583 35.6826 39.735 34.3614 39.8197L34.0359 39.0218L34.0063 38.9479L37.3854 37.6357L37.4741 37.6859C37.9602 37.9305 38.5079 38.0262 39.0483 37.9608L39.0157 37.943C38.9288 37.901 38.8456 37.8515 38.7672 37.7953L38.7376 37.7746C38.3693 37.4973 38.0795 37.1293 37.8964 36.7066C37.7133 36.2839 37.6432 35.8209 37.6931 35.363C37.8055 33.9946 38.8086 33.1376 39.6341 32.7356C39.7318 32.7149 39.8324 32.7002 39.93 32.6883C40.9008 32.5978 41.8733 32.8429 42.6847 33.3829Z" fill="#143FFD"/>
<path d="M18.7744 45.5591V45.6359H18.7505L18.7684 45.5591H18.7744Z" fill="black"/>
<path d="M30.6331 35.4016L30.7315 35.3809L30.6331 35.4016Z" fill="black"/>
<path d="M44.6997 34.6213C44.3741 33.7504 43.7433 33.0269 42.9244 32.585C41.3798 31.6984 39.2435 31.6127 37.8469 32.8303C36.8439 33.6726 36.1722 35.2922 36.5776 36.5926C35.6899 37.2989 34.1424 37.8397 33.6424 38.0023L32.4174 34.9789C36.5894 33.7967 40.291 31.2108 41.294 26.6506C41.7459 24.5048 41.6882 22.283 41.1254 20.1635L41.1047 20.0807C40.918 19.3556 40.6858 18.6429 40.4093 17.9469C39.7578 16.2739 38.9053 14.6861 37.8706 13.2183C37.9517 10.7679 37.728 8.31683 37.2048 5.92139C36.7864 4.1392 36.1845 2.405 35.4088 0.746479C35.2791 0.470751 35.0455 0.257374 34.7591 0.152765C34.4726 0.0481567 34.1563 0.0607966 33.8791 0.187922C31.6137 1.2365 29.5191 2.61932 27.6655 4.29002C27.0502 3.98943 26.4144 3.73264 25.7629 3.52161C22.1371 2.3585 18.2032 2.62497 14.7678 4.26637C12.9211 2.6042 10.8344 1.2293 8.57779 0.187922C8.30101 0.0609194 7.9852 0.0483642 7.6992 0.153C7.41319 0.257635 7.18021 0.47096 7.05104 0.746479C5.28317 4.52123 4.43453 8.66022 4.57447 12.8252H4.60997C3.6498 14.1042 2.84616 15.4932 2.21622 16.9628C1.83761 17.8347 1.52799 18.7349 1.29013 19.6552C1.29013 19.6847 1.29011 19.7143 1.26644 19.7438C0.693381 21.9186 0.629594 24.196 1.08003 26.3994C2.06829 30.9832 5.55978 33.7199 9.79688 34.9966L7.4771 40.7242C6.91196 40.9725 5.04786 41.9064 4.29335 43.6146C3.89391 44.5219 3.83768 45.9435 4.14245 47.4182C4.25193 47.9383 4.65139 49.6081 5.4562 50.1726C5.4562 50.2111 5.45618 50.2465 5.43547 50.2849C5.36088 50.8494 5.4721 51.4227 5.75231 51.9185C6.03252 52.4143 6.46651 52.8056 6.98888 53.0334C7.57389 53.3045 8.19794 53.4821 8.83817 53.5595C9.46856 53.6437 10.1074 53.6437 10.7378 53.5595C11.6325 53.4596 12.4807 53.1092 13.1848 52.5487C13.4648 52.9159 13.8305 53.2091 14.25 53.4029C15.4335 53.9792 16.9544 54.1151 18.135 53.4354C18.5251 53.1988 18.8289 52.8435 19.0019 52.4217H23.2597C23.6917 53.4472 24.8042 53.8285 25.8635 53.8403C26.663 53.834 27.4485 53.631 28.1507 53.2492C28.4767 53.0592 28.7615 52.806 28.9881 52.5044C30.1716 53.5388 31.8789 53.7664 33.3997 53.5595C34.04 53.4821 34.664 53.3045 35.249 53.0334C35.772 52.8064 36.2066 52.4152 36.4869 51.9192C36.7673 51.4233 36.878 50.8495 36.8024 50.2849C36.8024 50.2465 36.8025 50.2111 36.7818 50.1726C37.5836 49.6081 37.986 47.9383 38.0925 47.4182C38.3884 45.9405 38.344 44.5219 37.9416 43.6146C37.7485 43.1815 37.4867 42.7824 37.1664 42.4324L37.3232 42.4117C37.5599 42.3704 37.915 42.3201 38.1547 42.2669C39.8353 41.9271 41.5071 41.3449 42.8445 40.2366C43.4558 39.7456 43.9575 39.1322 44.3173 38.4359C44.677 37.7396 44.8869 36.9758 44.9335 36.1936C44.9335 36.1433 44.9335 36.0931 44.9335 36.0399C44.9305 35.5577 44.8516 35.079 44.6997 34.6213ZM3.99747 30.3951C3.04597 29.167 2.37809 27.744 2.04166 26.228C2.02095 26.1364 2.00321 26.0418 1.98249 25.9502C1.92924 25.6812 1.88779 25.4123 1.85229 25.1404C1.85229 25.0488 1.83158 24.9572 1.8227 24.8655C1.79016 24.57 1.76945 24.2479 1.75762 23.9375C1.75762 23.8459 1.75762 23.7543 1.75762 23.6627C1.75762 23.2814 1.75761 22.8972 1.78424 22.513C1.8293 21.8184 1.91925 21.1273 2.0535 20.4443C2.0535 20.4147 2.05348 20.3851 2.06828 20.3556C2.65451 17.6789 3.71143 15.1273 5.1899 12.8193C5.23724 12.7395 5.28754 12.6597 5.33784 12.5829C5.76392 11.9032 6.22551 11.2411 6.67822 10.5969C6.19944 11.014 5.74869 11.4622 5.32896 11.9386C5.33313 8.1916 6.15718 4.49079 7.7434 1.09523C7.78447 1.00846 7.85821 0.941418 7.94856 0.908752C8.03891 0.876086 8.13855 0.880439 8.2257 0.920855C10.3216 1.88819 12.2668 3.15232 14.0014 4.67422C13.5555 4.92768 13.1247 5.20695 12.7114 5.5106L12.9066 5.46626C15.6662 4.18367 18.684 3.5517 21.727 3.61914C24.3773 3.7185 26.9817 4.34022 29.3905 5.44853C29.4793 5.46922 29.5651 5.49582 29.6509 5.51946C29.2479 5.22107 28.8269 4.94767 28.3904 4.70081C29.35 3.85453 30.3761 3.08662 31.4587 2.40447C32.338 1.85494 33.2512 1.36139 34.1927 0.926772C34.2799 0.886355 34.3795 0.882002 34.4699 0.914668C34.5602 0.947334 34.634 1.01436 34.675 1.10113C36.3035 4.58596 37.1276 8.39158 37.0865 12.2371C36.6005 11.6333 36.0756 11.0617 35.5153 10.5259C37.125 12.9789 38.6014 15.4821 39.5719 18.2454C39.849 19.0326 40.0734 19.8372 40.2436 20.6541C40.2436 20.6836 40.2436 20.7102 40.2614 20.7398C40.2791 20.7693 40.288 20.8698 40.2999 20.9378C40.3117 21.0058 40.3206 21.0442 40.3294 21.0974C40.6478 22.7439 40.6618 24.4346 40.3709 26.0861C40.3531 26.1777 40.3353 26.2664 40.3146 26.358C40.3146 26.358 40.3146 26.358 40.3146 26.3757C40.1416 27.1704 39.8734 27.9414 39.5157 28.6721C37.7878 32.1358 34.2253 34.0952 30.5711 35.0853L30.1213 35.2035C29.8905 35.3395 29.642 35.4754 29.3787 35.6114C26.885 36.9029 24.1188 37.5818 21.3098 37.5915H21.2447C18.5083 37.5927 15.8092 36.9561 13.3623 35.7325C13.1463 35.6261 12.9392 35.5168 12.7439 35.4074C12.448 35.3395 12.1521 35.2656 11.8562 35.1887C8.83228 34.3612 5.92073 32.8983 3.99747 30.3951ZM37.1901 43.922C37.8972 45.5297 37.1398 48.559 36.4533 49.3717C36.3885 49.2616 36.3164 49.1559 36.2373 49.0555C36.2202 49.0325 36.2014 49.0108 36.1811 48.9905L36.0805 48.8752C35.967 48.7638 35.8421 48.6647 35.7077 48.5797C35.6262 48.5291 35.54 48.4865 35.4503 48.4526C35.5559 48.6638 35.6469 48.882 35.7225 49.1057C36.0598 50.146 36.0627 50.9913 35.5568 51.5912C35.5337 51.6211 35.509 51.6497 35.4828 51.6769C35.4184 51.745 35.3481 51.8073 35.2727 51.8631C35.2727 51.807 35.2461 51.7479 35.2313 51.6917C35.2258 51.6648 35.2189 51.6381 35.2106 51.6119C35.1168 51.2442 34.9586 50.8959 34.7431 50.5834C34.6223 50.4138 34.4632 50.2751 34.2786 50.1785C34.4157 50.3179 34.5172 50.4882 34.5744 50.675C34.661 50.9854 34.695 51.308 34.675 51.6296C34.675 51.6562 34.675 51.6828 34.675 51.7094C34.6629 51.885 34.6402 52.0597 34.607 52.2325C34.4781 52.2825 34.3467 52.3259 34.2134 52.3626C33.8803 52.447 33.5424 52.5111 33.2015 52.5547C33.1423 52.3833 33.0772 52.2118 33.0003 52.0434C32.937 51.9049 32.8649 51.7707 32.7843 51.6415L32.7192 51.5469C32.6248 51.4111 32.5002 51.2988 32.3553 51.2188C32.4266 51.3005 32.48 51.3961 32.5121 51.4996L32.5387 51.5882L32.5565 51.6592C32.6177 51.9725 32.6346 52.2928 32.6068 52.6108C31.4889 52.7124 30.3696 52.4321 29.4319 51.8158C29.7199 51.3234 29.9673 50.8085 30.1716 50.2761L30.2042 50.1963C30.29 49.9776 30.3728 49.7559 30.4557 49.5343C30.6658 48.9432 30.8551 48.3521 31.0297 47.761C31.0297 47.7315 31.0297 47.7019 31.0534 47.6724C31.1688 47.2763 31.2753 46.8774 31.3789 46.4902C31.6497 45.4662 31.865 44.4283 32.0239 43.3811C32.2016 42.3345 32.2878 41.2745 32.2813 40.2129C31.8582 41.4453 31.5239 42.7516 31.0978 43.9899C31.0386 44.1732 30.9202 44.5544 30.867 44.7376C30.5711 45.8459 30.2752 46.9631 29.9408 48.0595L29.9142 48.1393C29.6715 48.9243 29.382 49.6941 29.0473 50.4445L28.9674 50.6189C28.6715 51.2513 28.3223 51.9074 27.7838 52.3271C27.7014 52.3845 27.6131 52.4331 27.5205 52.4719L27.3962 52.531C27.4185 52.2248 27.3946 51.917 27.3252 51.6178V51.5676L27.2986 51.4907C27.2476 51.335 27.1639 51.1919 27.053 51.071C27.1172 51.2193 27.1494 51.3795 27.1477 51.541C27.1491 51.5695 27.1491 51.5981 27.1477 51.6267C27.1026 52.0207 26.981 52.4022 26.7896 52.7497C26.3725 52.8731 25.9361 52.9182 25.5025 52.8827C25.5333 52.5405 25.5194 52.1958 25.4611 51.8572C25.4611 51.8306 25.4611 51.804 25.4463 51.7774C25.4449 51.7666 25.4449 51.7557 25.4463 51.7449C25.4109 51.5717 25.3326 51.4102 25.2185 51.275C25.2679 51.4307 25.278 51.5962 25.2481 51.7567C25.2481 51.7833 25.2481 51.807 25.2333 51.8336C25.1605 52.1507 25.0482 52.4575 24.8989 52.7468H24.8723C24.6849 52.6924 24.5127 52.5952 24.3695 52.4628C24.2262 52.3305 24.1157 52.1667 24.0468 51.9843C24.0202 51.9122 23.9994 51.8381 23.9846 51.7626C23.9846 51.7154 23.9639 51.671 23.9551 51.6208L23.9373 51.5351C23.6745 50.1977 23.5486 48.8371 23.5615 47.4743C23.5615 47.4448 23.5615 47.4152 23.5615 47.3857C23.5615 47.2763 23.5615 47.167 23.5615 47.0576C23.5672 46.5823 23.5295 46.1075 23.4491 45.639C23.4491 45.6154 23.4491 45.5888 23.4491 45.5622L23.4313 45.4706H23.4136L23.3603 45.5622C23.3603 45.5888 23.3307 45.6154 23.3189 45.642C22.9791 46.3762 22.8179 47.1803 22.8484 47.9886V48.225C22.8484 48.3521 22.8484 48.4821 22.8484 48.6092V48.689C22.8563 49.6788 22.9374 50.6666 23.0911 51.6444H19.2031C19.3504 50.6474 19.4226 49.6407 19.4191 48.6329C19.4191 48.6151 19.4191 48.5944 19.4191 48.5737V48.491C19.4191 48.3757 19.4191 48.2634 19.4191 48.1482C19.4206 48.1206 19.4206 48.093 19.4191 48.0654C19.3984 47.1788 19.3185 46.2922 18.8687 45.4795C18.8614 45.5027 18.8555 45.5264 18.851 45.5504V45.6302H18.8303C18.7335 46.1037 18.6879 46.5862 18.6942 47.0695C18.6942 47.1108 18.6942 47.1522 18.6942 47.1965C18.6957 47.2241 18.6957 47.2517 18.6942 47.2793C18.7155 48.732 18.5786 50.1828 18.2859 51.606L18.2681 51.7035C18.2617 51.7268 18.2568 51.7505 18.2533 51.7744C18.2385 51.8518 18.2178 51.9279 18.1912 52.002C18.1227 52.1925 18.0101 52.3641 17.8625 52.5028C17.7149 52.6415 17.5365 52.7433 17.342 52.8C17.1839 52.5052 17.0646 52.1913 16.9869 51.8661C16.9869 51.8365 16.9869 51.8099 16.9869 51.7833C16.9584 51.6179 16.9675 51.4482 17.0135 51.2868C16.9041 51.4257 16.8273 51.5873 16.7887 51.7597C16.7796 51.7845 16.7737 51.8103 16.7709 51.8365C16.7038 52.201 16.6898 52.5733 16.7295 52.9418C16.3116 52.9868 15.889 52.9528 15.4838 52.8414C15.2099 52.409 15.0717 51.9046 15.0873 51.3932C15.0859 51.3666 15.0859 51.34 15.0873 51.3134C15.1037 51.2297 15.1275 51.1477 15.1583 51.0681C15.1014 51.1334 15.0518 51.2048 15.0104 51.2809C14.9962 51.3033 14.9843 51.3271 14.9749 51.3518C14.8085 51.7503 14.7503 52.1856 14.8062 52.6138L14.6464 52.5399C13.9807 52.2651 13.38 51.2868 12.8711 50.0928L12.7942 49.9155C12.6019 49.4426 12.4184 48.9432 12.2527 48.4378L12.2231 48.3491C11.7586 46.9305 11.4124 45.5179 11.2171 44.7524C11.1195 44.3712 10.9212 43.6146 10.8177 43.2363C10.575 42.3497 10.2466 41.0552 9.93001 40.2011C9.92072 40.5954 9.93158 40.99 9.96256 41.3833C10.0129 42.0423 10.072 42.7073 10.143 43.3634C10.2328 44.4225 10.42 45.4712 10.7023 46.4961C10.7822 46.7917 10.8768 47.1404 10.9982 47.5246L11.0218 47.6073C11.2897 48.5763 11.6148 49.5286 11.9953 50.4593C12.0074 50.4834 12.0182 50.508 12.0278 50.5332C12.2222 50.9894 12.4476 51.4317 12.7025 51.8572C11.7797 52.4303 10.6959 52.6895 9.61339 52.596C9.57621 52.2673 9.59422 51.9347 9.66667 51.6119C9.66667 51.5853 9.66666 51.5557 9.69033 51.5292C9.72934 51.4116 9.78843 51.3016 9.86493 51.2041C9.71059 51.2941 9.57819 51.4173 9.4773 51.5646C9.45591 51.592 9.43616 51.6206 9.41813 51.6503C9.2496 51.9283 9.11639 52.2261 9.02162 52.537C8.68095 52.4907 8.34314 52.4256 8.00971 52.3419C7.8749 52.3071 7.74247 52.2636 7.61323 52.2119C7.61323 52.1616 7.59546 52.1114 7.58954 52.0641C7.56883 51.8897 7.54814 51.7094 7.53926 51.5262V51.4434C7.51659 51.2138 7.53965 50.982 7.6072 50.7613C7.67475 50.5407 7.78542 50.3355 7.93278 50.1578C7.51356 50.4232 7.21023 50.837 7.08358 51.3164C7.07435 51.3406 7.06647 51.3652 7.05992 51.3903C7.01161 51.5378 6.97111 51.6877 6.9386 51.8395C6.68271 51.6515 6.48482 51.3955 6.36752 51.1006C6.3526 51.0653 6.34073 51.0287 6.33202 50.9913C6.32339 50.9661 6.31649 50.9405 6.31132 50.9144C6.18492 50.1052 6.32071 49.2768 6.69892 48.5501L6.76108 48.423L6.69595 48.4496C6.48819 48.5471 6.29975 48.6813 6.13968 48.8456L6.07756 48.9077C5.95533 49.0425 5.84819 49.1901 5.75802 49.3481C5.07156 48.5324 4.31705 45.506 5.02422 43.8983C5.28985 43.3335 5.67916 42.8356 6.16338 42.4413L6.29948 42.329C6.79544 41.9321 7.34412 41.6059 7.92982 41.3596L8.08961 41.2976L10.5691 35.1769L11.0632 35.2981C11.2792 35.3483 11.4953 35.3927 11.7113 35.437L11.9391 35.4813C11.9391 35.5641 11.9391 35.6793 11.9391 35.8241L12.0219 35.8714C14.8285 37.4939 18.0139 38.3482 21.2566 38.3481H21.3128C24.5598 38.3385 27.7466 37.4719 30.5504 35.836L30.6303 35.7887C30.6303 35.7059 30.6302 35.5286 30.6598 35.3808L30.7545 35.3631C31.0504 35.304 31.3463 35.239 31.6422 35.1651L34.0714 41.1527L34.1365 41.3123L34.2933 41.3744C34.7083 41.5482 35.1048 41.7631 35.4769 42.0157C35.5686 42.0807 35.6662 42.1487 35.7728 42.2196C36.3817 42.6582 36.8694 43.2439 37.1901 43.922ZM43.7321 37.6535C43.6966 37.7363 43.6582 37.819 43.6197 37.8988C43.0327 39.0036 42.1066 39.8913 40.9774 40.4316C39.902 40.9622 38.7562 41.3364 37.5747 41.5429C37.1989 41.6138 36.7788 41.6788 36.3912 41.732C35.8825 41.3284 35.3248 40.9908 34.7312 40.7272V40.7065L34.6987 40.6237L34.4028 39.8997L34.3703 39.8228L34.0478 39.0219L34.0182 38.951L33.9324 38.7382C35.0042 38.398 36.0231 37.9095 36.9593 37.2871C37.0867 37.4249 37.2343 37.5424 37.3972 37.6358L37.486 37.6861C37.9718 37.9317 38.5194 38.0284 39.0601 37.9639L39.0275 37.9461C38.9406 37.9041 38.8575 37.8546 38.779 37.7984L38.7494 37.7777C38.3667 37.6331 38.0069 37.434 37.6813 37.1866C36.8528 36.563 37.0037 35.3897 37.3854 34.5267C37.5873 34.0717 37.8941 33.6709 38.2808 33.357C38.6676 33.0432 39.1232 32.8252 39.6104 32.721H39.64C39.7406 32.7003 39.8412 32.6855 39.9359 32.6737C40.9057 32.584 41.8769 32.8292 42.6876 33.3682L42.7616 33.4185C43.1284 33.6555 43.4352 33.9742 43.658 34.3496C43.8808 34.7249 44.0135 35.1467 44.0458 35.5818C44.1116 36.2876 44.0039 36.9987 43.7321 37.6535Z" fill="black"/>
<path d="M5.47985 45.8222C5.52439 46.8836 5.71149 47.9343 6.03612 48.946C5.91461 49.0796 5.80843 49.2263 5.71953 49.3834C5.03012 48.5677 4.27561 45.5414 4.98278 43.9366C5.2494 43.3708 5.63969 42.8719 6.1249 42.4766C5.66196 43.5295 5.44152 44.6728 5.47985 45.8222Z" fill="#0630C9"/>
<path d="M38.7375 37.7776C38.3547 37.6331 37.995 37.434 37.6693 37.1866C36.8408 36.563 36.9917 35.3867 37.3734 34.5267C37.5755 34.0721 37.8825 33.6717 38.2692 33.3584C38.656 33.0451 39.1115 32.8276 39.5985 32.7239H39.6311C38.8055 33.1258 37.8025 33.9829 37.69 35.3513C37.6378 35.8118 37.707 36.278 37.8908 36.7036C38.0745 37.1291 38.3664 37.4994 38.7375 37.7776Z" fill="#0630C9"/>
<path d="M37.3853 37.6386L34.0062 38.9508L33.9204 38.7381C34.9933 38.4005 36.0125 37.9119 36.9473 37.2869C37.0766 37.4235 37.224 37.5418 37.3853 37.6386Z" fill="#0630C9"/>
<path d="M43.7143 37.6565C43.6788 37.7392 43.6434 37.819 43.6019 37.9018C43.0141 39.0058 42.0883 39.8933 40.9597 40.4345C39.8842 40.9642 38.7383 41.3374 37.557 41.5428C37.1812 41.6167 36.761 41.6817 36.3734 41.732C35.8637 41.3299 35.3062 40.9924 34.7135 40.7271V40.7064L34.678 40.6266C35.684 40.7212 37.9653 40.866 39.4566 40.405C41.1201 39.937 42.6039 38.9792 43.7143 37.6565Z" fill="#E6E6E6"/>
<path d="M43.7143 37.6566C42.6055 38.9783 41.1239 39.9361 39.4624 40.4051C37.983 40.8661 35.6899 40.7213 34.6839 40.6267L34.388 39.8997L34.3584 39.8229C35.6796 39.7382 36.9815 39.4614 38.2227 39.0013C40.1548 38.2536 42.4627 36.6754 42.6817 33.386L42.7557 33.4392C43.1227 33.6753 43.4298 33.9934 43.6526 34.3683C43.8755 34.7432 44.008 35.1648 44.0398 35.5996C44.1002 36.3015 43.9884 37.0075 43.7143 37.6566Z" fill="white"/>
<path d="M18.7744 45.5591V45.6359H18.7505L18.7684 45.5591H18.7744Z" fill="black"/>
<path d="M30.0977 35.2063C29.8639 35.3423 29.6154 35.4782 29.355 35.6142C26.8611 36.908 24.0934 37.587 21.2832 37.5943H21.2269C18.4905 37.5955 15.7915 36.959 13.3445 35.7354C13.1285 35.629 12.9214 35.5196 12.7231 35.4132C12.7942 35.4339 14.8683 36.1107 19.428 36.2496H19.6321H19.8688H20.1854H20.5878H21.0761C26.8104 36.2732 30 35.2389 30.0977 35.2063Z" fill="white"/>
<path d="M40.2969 26.3579C40.2969 26.3579 40.2969 26.3579 40.2969 26.3756C40.1225 27.1709 39.8543 27.9427 39.498 28.6749C37.7671 32.1386 34.2046 34.0951 30.5504 35.0852L30.1036 35.2034C30.0059 35.2359 26.8163 36.2703 21.0938 36.2703H20.6056H19.8866H19.6499H19.4458C14.8862 36.1314 12.812 35.4546 12.741 35.4339C12.4451 35.3689 12.1492 35.295 11.8533 35.2152C8.83526 34.3966 5.93556 32.9336 4.00342 30.4304C3.04852 29.2044 2.38028 27.7806 2.04761 26.2633V26.2456C2.73111 27.5016 4.16614 29.7566 6.35866 31.3111C9.61342 33.6193 16.5047 34.4379 21.4105 34.4379C26.4672 34.4379 33.3051 33.3415 36.0154 31.3111C37.7645 29.9675 39.2212 28.2822 40.2969 26.3579Z" fill="#E6E6E6"/>
<path d="M18.6201 47.2023V47.2851C17.8551 47.0173 17.0601 46.8446 16.253 46.7708C15.4998 46.7312 14.7474 46.8612 14.0513 47.1512C13.3553 47.4413 12.7335 47.884 12.2319 48.4465C12.2319 48.417 12.2111 48.3874 12.2023 48.3579C11.7377 46.9393 11.3916 45.5266 11.1933 44.7641C11.0957 44.3828 10.8974 43.6233 10.7939 43.245C10.5512 42.3584 10.2228 41.0639 9.90622 40.2098C9.87959 40.5704 9.92692 41.0314 9.93876 41.392C9.98906 42.051 10.0482 42.719 10.1192 43.3751C10.2107 44.434 10.3979 45.4825 10.6785 46.5078C10.7584 46.8033 10.856 47.1491 10.9744 47.5333L10.998 47.6161C10.495 47.5481 8.15751 47.3205 6.67512 48.5766C6.69287 48.5322 6.71357 48.4909 6.73428 48.4465L6.66919 48.4761C6.46048 48.5722 6.27099 48.7054 6.10996 48.8691L6.04784 48.9342C5.72321 47.9225 5.53611 46.8718 5.49157 45.8103C5.45324 44.661 5.67365 43.5177 6.13658 42.4648L6.27272 42.3525C6.77011 41.9592 7.31729 41.6333 7.90009 41.3831L8.05985 41.3211L10.5394 35.2034L11.0335 35.3216C11.2495 35.3718 11.4655 35.4191 11.6845 35.4605L11.9123 35.5048C11.9123 35.5876 11.9123 35.7028 11.9123 35.8477C11.9754 37.3963 12.2268 38.9316 12.6609 40.4197C13.0126 41.7171 13.6482 42.9203 14.522 43.9425C14.9811 44.4636 15.5447 44.8825 16.1762 45.1722C16.8078 45.4619 17.4932 45.6159 18.1881 45.6241H18.7502C18.6544 46.0977 18.6098 46.5803 18.6171 47.0634C18.6171 47.1166 18.6201 47.1727 18.6201 47.2023Z" fill="#143FFD"/>
<path d="M19.1499 51.6503C19.2961 50.6532 19.3673 49.6465 19.3629 48.6388V48.5796C19.9653 48.7762 20.5934 48.8828 21.227 48.8959H21.2803C21.7897 48.8714 22.2963 48.8062 22.7952 48.7008C22.8008 49.6905 22.8809 50.6785 23.0349 51.6562L19.1499 51.6503Z" fill="#143FFD"/>
<path d="M22.7952 48.2368C22.7952 48.3639 22.7952 48.4939 22.7952 48.624C22.7952 48.6506 22.7952 48.6772 22.7952 48.7038C22.2963 48.8091 21.7897 48.8744 21.2803 48.8988H21.227C20.5934 48.8857 19.9653 48.7792 19.3629 48.5826C19.3614 48.554 19.3614 48.5254 19.3629 48.4969C19.3629 48.3846 19.3629 48.2693 19.3629 48.1541C19.9184 47.9432 20.5057 47.8282 21.0998 47.8142C21.6812 47.7922 22.2613 47.8846 22.8071 48.0861L22.7952 48.2368Z" fill="#E6E6E6"/>
<path d="M30.6036 35.8271C30.577 36.9088 30.287 42.4117 26.9819 44.8292C26.9819 44.8292 25.9256 45.6567 23.5378 45.6567H23.4165C23.4165 45.6301 23.4165 45.6035 23.4165 45.5769L23.3958 45.4883H23.378L23.3248 45.5769C23.3248 45.6035 23.2982 45.6301 23.2834 45.6567C22.9444 46.3912 22.7843 47.1953 22.8159 48.0033C22.8144 48.0309 22.8144 48.0585 22.8159 48.0861C22.2701 47.8846 21.69 47.7922 21.1086 47.8142C20.5145 47.8282 19.9272 47.9432 19.3717 48.1541V48.0595C19.3481 47.1729 19.2711 46.2862 18.8214 45.4765H18.8036L18.7859 45.5474L18.7681 45.6242H18.2059C17.511 45.616 16.8256 45.462 16.1941 45.1723C15.5626 44.8827 14.999 44.4637 14.5399 43.9426C13.6661 42.9204 13.0304 41.7172 12.6788 40.4198C12.2447 38.9317 11.9933 37.3964 11.9302 35.8478L12.0101 35.8951C14.8169 37.5167 18.0021 38.371 21.2447 38.3717H21.3039C24.5508 38.3613 27.7374 37.4947 30.5415 35.8596L30.6036 35.8271Z" fill="white"/>
<path d="M25.1918 51.86C25.1212 52.1769 25.0087 52.483 24.8574 52.7703H24.8308C24.6434 52.7159 24.4712 52.6187 24.328 52.4863C24.1847 52.354 24.0742 52.1901 24.0053 52.0078C23.9801 51.9362 23.9594 51.8632 23.9432 51.7891C23.9432 51.7418 23.9254 51.6945 23.9136 51.6472C24.3335 51.7509 24.7609 51.822 25.1918 51.86Z" fill="#E6E6E6"/>
<path d="M27.115 51.6296V51.6444C27.0689 52.0386 26.9463 52.4201 26.7541 52.7675C26.3383 52.8924 25.9025 52.9375 25.4699 52.9004C25.4981 52.5581 25.4832 52.2136 25.4255 51.8749H25.6534C25.8747 51.8764 26.0957 51.8566 26.3132 51.8158C26.5835 51.7676 26.8512 51.7055 27.115 51.6296Z" fill="#E6E6E6"/>
<path d="M28.9555 50.616C28.6596 51.2514 28.3104 51.9075 27.7719 52.3242C27.6879 52.3815 27.5987 52.431 27.5056 52.472L27.3843 52.5281C27.4055 52.2227 27.3806 51.9159 27.3103 51.6179V51.5647C27.9155 51.3589 28.4744 51.0366 28.9555 50.616Z" fill="#E6E6E6"/>
<path d="M36.4473 49.3864C36.3843 49.2743 36.312 49.1675 36.2313 49.0673C36.9186 47.7799 37.1282 46.2914 36.8231 44.8647C36.6752 43.919 36.3073 43.0212 35.749 42.2432C36.3633 42.6771 36.8572 43.2598 37.1841 43.9367C37.8912 45.5415 37.1367 48.5708 36.4473 49.3864Z" fill="#0630C9"/>
<path d="M36.2314 49.0674L36.1782 49.0023C36.1456 48.9639 36.1101 48.9255 36.0746 48.89C35.963 48.7766 35.8378 48.6773 35.7018 48.5945C35.6203 48.5439 35.5341 48.5013 35.4444 48.4674C34.6535 47.9181 33.7231 47.6035 32.7607 47.5601C32.172 47.5587 31.5855 47.6312 31.015 47.7759L31.0416 47.6902C31.157 47.2941 31.2635 46.8981 31.367 46.508C31.6364 45.4836 31.8518 44.4458 32.0121 43.3989C32.1888 42.3522 32.274 41.2922 32.2666 40.2307C31.8434 41.4631 31.5091 42.7694 31.083 44.0077C31.0238 44.191 30.9084 44.5752 30.8552 44.7584C30.5593 45.8637 30.2634 46.9809 29.9261 48.0773C29.9261 48.1039 29.9261 48.1305 29.9024 48.1571C29.0004 47.4556 27.9431 46.9803 26.8193 46.771C25.4966 46.5819 24.1563 47.1789 23.5201 47.5099V47.4212C23.5201 47.3119 23.5201 47.2025 23.5201 47.0961C23.5245 46.6209 23.487 46.1462 23.4077 45.6775H23.529C25.9168 45.6775 26.9613 44.8589 26.9731 44.85C30.2782 42.4325 30.5682 36.9295 30.5948 35.8479V35.8301C30.5948 35.7474 30.5948 35.573 30.6244 35.4252L30.722 35.4075C31.0179 35.3484 31.3138 35.2834 31.6097 35.2095L34.0359 41.2001L34.101 41.3567L34.2608 41.4188C34.6754 41.5933 35.0719 41.8081 35.4444 42.0601C35.5391 42.1222 35.6337 42.1902 35.7403 42.264C36.2986 43.042 36.6664 43.9398 36.8143 44.8855C37.1171 46.3046 36.9108 47.7848 36.2314 49.0674Z" fill="#143FFD"/>
<path d="M29.9054 48.1362C29.6619 48.9209 29.3724 49.6907 29.0385 50.4414C29.0089 50.5005 28.9823 50.5597 28.9556 50.6158C28.4707 51.0402 27.9066 51.3646 27.2957 51.5704C27.2892 51.5444 27.2813 51.5187 27.272 51.4936C27.218 51.3392 27.1347 51.1966 27.0265 51.0739C27.0883 51.2228 27.1195 51.3826 27.1182 51.5438C27.1196 51.5724 27.1196 51.6009 27.1182 51.6295C26.8544 51.7073 26.5868 51.7715 26.3163 51.8216C26.0988 51.8624 25.8778 51.8822 25.6565 51.8807H25.4287C25.4252 51.8539 25.4202 51.8272 25.4139 51.8009C25.4155 51.7911 25.4155 51.7812 25.4139 51.7714C25.3784 51.5973 25.3001 51.4348 25.186 51.2985C25.2384 51.4536 25.2486 51.6199 25.2156 51.7802C25.2121 51.8071 25.2072 51.8337 25.2008 51.86C24.7697 51.8191 24.3423 51.745 23.9226 51.6384L23.9048 51.5526C23.6416 50.2144 23.5167 48.8527 23.532 47.489C24.1563 47.158 25.5085 46.561 26.8312 46.7501C27.9519 46.9607 29.006 47.436 29.9054 48.1362Z" fill="#FAFBFB"/>
<path d="M34.6573 51.7152C34.645 51.8917 34.6223 52.0674 34.5893 52.2413C34.4605 52.2906 34.3291 52.333 34.1957 52.3683C33.8627 52.4537 33.5247 52.5189 33.1838 52.5634C33.1265 52.3887 33.0603 52.2171 32.9856 52.0492C32.9211 51.9113 32.849 51.7771 32.7695 51.6472C33.0395 51.7001 33.314 51.7268 33.5891 51.727C34.0152 51.727 34.3673 51.7211 34.6573 51.7152Z" fill="#E6E6E6"/>
<path d="M32.5921 52.6168C31.475 52.7198 30.3562 52.4394 29.4202 51.8218C29.7058 51.3282 29.9531 50.8134 30.1599 50.282C30.8277 50.9089 31.6412 51.3598 32.527 51.5942C32.5352 51.6175 32.5421 51.6411 32.5477 51.6652C32.6053 51.9789 32.6202 52.2991 32.5921 52.6168Z" fill="#E6E6E6"/>
<path d="M35.4768 51.6829C35.4124 51.7519 35.3422 51.8152 35.2667 51.872C35.2667 51.8129 35.2401 51.7538 35.2283 51.6977L35.4768 51.6829Z" fill="#E6E6E6"/>
<path d="M35.5538 51.6061C35.5297 51.6351 35.5041 51.6627 35.4769 51.6888H35.2284C35.2284 51.6622 35.2284 51.6356 35.2047 51.609C35.1114 51.2426 34.9542 50.8954 34.7401 50.5835C34.6199 50.4123 34.4594 50.2732 34.2727 50.1786C34.4118 50.3164 34.5136 50.4873 34.5685 50.6751C34.6543 50.9846 34.6873 51.3063 34.6662 51.6268C34.6676 51.6533 34.6676 51.68 34.6662 51.7066C34.3703 51.7066 34.0241 51.7066 33.598 51.7066C33.3229 51.7063 33.0484 51.6796 32.7784 51.6268C32.7594 51.5951 32.7387 51.5645 32.7163 51.5352C32.6217 51.3984 32.4959 51.286 32.3494 51.2071C32.4215 51.2876 32.4759 51.3822 32.5091 51.4849C32.5207 51.5136 32.5297 51.5433 32.5358 51.5736C31.65 51.3392 30.8365 50.8882 30.1687 50.2614L30.1983 50.1816C30.287 49.9629 30.3699 49.7442 30.4527 49.5225C30.6638 48.9314 30.8542 48.3404 31.0238 47.7493C31.5944 47.6046 32.1809 47.5321 32.7695 47.5335C33.7319 47.5769 34.6623 47.8915 35.4532 48.4408C35.5604 48.6528 35.6523 48.872 35.7284 49.0969C36.0568 50.155 36.0568 51.015 35.5538 51.6061Z" fill="white"/>
<path d="M18.2563 51.7095C18.2563 51.7331 18.2563 51.7568 18.2415 51.7834C18.2259 51.8593 18.2062 51.9343 18.1823 52.008C18.1129 52.1988 17.9997 52.3706 17.8517 52.5097C17.7037 52.6488 17.525 52.7513 17.3302 52.8089C17.1726 52.5129 17.0533 52.1981 16.9751 51.8721C17.0875 51.8721 17.1911 51.8721 17.2888 51.8721C17.6189 51.8835 17.948 51.8282 18.2563 51.7095Z" fill="#E6E6E6"/>
<path d="M16.7029 52.9508C16.2851 52.9926 15.863 52.9586 15.4572 52.8503C15.1849 52.4161 15.0469 51.9113 15.0608 51.3992C15.606 51.602 16.1699 51.7505 16.7444 51.8425C16.6787 52.2082 16.6648 52.5812 16.7029 52.9508Z" fill="#E6E6E6"/>
<path d="M14.7913 52.6197L14.6286 52.5458C13.9628 52.2709 13.3652 51.2956 12.8533 50.1016C13.4719 50.6451 14.1849 51.0708 14.957 51.3577C14.7916 51.7565 14.7344 52.1918 14.7913 52.6197Z" fill="#E6E6E6"/>
<path d="M18.2859 51.6059C18.2859 51.6384 18.2859 51.6709 18.2652 51.7034C17.9579 51.8271 17.6288 51.8875 17.2976 51.8807C17.2 51.8807 17.0964 51.8807 16.9839 51.8807C16.9825 51.8532 16.9825 51.8255 16.9839 51.798C16.9564 51.6323 16.9665 51.4626 17.0135 51.3014C16.9031 51.44 16.8252 51.6016 16.7857 51.7743L16.768 51.8511C16.1935 51.7591 15.6296 51.6106 15.0844 51.4078C15.0829 51.3813 15.0829 51.3546 15.0844 51.3281C15.0988 51.2442 15.1216 51.162 15.1524 51.0827C15.0955 51.1491 15.0459 51.2215 15.0045 51.2985L14.969 51.3665C14.1969 51.0795 13.4839 50.6538 12.8652 50.1104L12.7913 49.9302C12.596 49.4573 12.4155 48.9578 12.2498 48.4525C12.7514 47.8899 13.3732 47.4472 14.0693 47.1572C14.7653 46.8671 15.5177 46.7371 16.2709 46.7767C17.078 46.8505 17.873 47.0232 18.6379 47.291C18.6756 48.7377 18.5576 50.1843 18.2859 51.6059Z" fill="#FAFBFB"/>
<path d="M12.664 51.8809C11.7409 52.453 10.6572 52.7112 9.57497 52.6168C9.54074 52.289 9.55869 51.9578 9.62821 51.6356C10.4926 51.4696 11.3044 51.0987 11.9953 50.554C12.186 51.0118 12.4094 51.4553 12.664 51.8809Z" fill="#E6E6E6"/>
<path d="M9.38254 51.6739C9.21111 51.9507 9.07682 52.2488 8.9831 52.5605C8.64224 52.5155 8.30432 52.4503 7.97115 52.3655C7.84096 52.33 7.70782 52.2887 7.57467 52.2384C7.57467 52.1852 7.5569 52.135 7.55098 52.0877C7.53027 51.9133 7.50958 51.7331 7.50366 51.5498C7.82782 51.6237 8.15724 51.6721 8.48895 51.6946C8.59843 51.6946 8.70494 51.6946 8.8085 51.6946C9.00008 51.6999 9.19183 51.6929 9.38254 51.6739Z" fill="#E6E6E6"/>
<path d="M7.0215 51.4198C6.97416 51.5675 6.93569 51.7153 6.90314 51.869C6.64628 51.68 6.44743 51.4231 6.3291 51.1272C6.55119 51.2441 6.78284 51.342 7.0215 51.4198Z" fill="#E6E6E6"/>
<path d="M9.65766 51.5497C9.69445 51.4327 9.75266 51.3234 9.8293 51.2275C9.67473 51.3149 9.54294 51.4374 9.44463 51.5852C9.42061 51.6123 9.39978 51.642 9.38251 51.6738C9.19211 51.6978 9.00037 51.7096 8.80847 51.7093C8.70491 51.7093 8.5984 51.7093 8.48892 51.7093C8.15721 51.6867 7.82779 51.6383 7.50363 51.5645V51.4847C7.48128 51.2551 7.50451 51.0233 7.57204 50.8027C7.63957 50.5821 7.75007 50.3769 7.89715 50.1991C7.47832 50.4635 7.17501 50.8763 7.04795 51.3546L7.02426 51.4315C6.7855 51.3527 6.55389 51.2539 6.33189 51.1359C6.33189 51.1005 6.30527 51.065 6.29639 51.0296C6.28751 50.9941 6.29641 50.9763 6.27569 50.9527C6.15124 50.1432 6.28802 49.3151 6.66625 48.5884C8.14568 47.3264 10.4861 47.5599 10.9892 47.6279C11.2585 48.5968 11.5846 49.5491 11.9656 50.4798C11.9656 50.5035 11.9863 50.5301 11.9981 50.5537C11.3072 51.0985 10.4954 51.4694 9.63104 51.6354C9.63678 51.6059 9.6457 51.5772 9.65766 51.5497Z" fill="#FAFBFB"/>
<path d="M19.8838 9.3998C19.9104 9.51801 19.9341 9.63623 19.9577 9.75445C19.9429 9.67465 19.9252 9.5919 19.9074 9.51211C19.8897 9.43231 19.8926 9.43822 19.8838 9.3998ZM19.8127 9.07471C19.8364 9.18111 19.863 9.29045 19.8838 9.3998C19.8838 9.36138 19.8689 9.32591 19.8601 9.29045C19.8512 9.25498 19.8275 9.14564 19.8127 9.07471Z" fill="#FF9600"/>
<path d="M23.8278 4.59741H24.1H23.8278ZM20.9162 4.55603H20.8452H20.5493H20.2327L19.6084 4.58854C20.9014 4.52056 22.3128 4.50283 23.7242 4.5708C23.2478 4.54716 22.7774 4.5324 22.3158 4.52648C21.8542 4.52057 21.3808 4.54717 20.9162 4.55603Z" fill="#FF9600"/>
<path d="M40.2347 20.6335C40.0645 19.8167 39.8401 19.012 39.563 18.2248C38.5925 15.4615 37.116 12.9583 35.5064 10.5053C36.0667 11.0411 36.5915 11.6127 37.0776 12.2165C37.1186 8.37098 36.2945 4.56536 34.6661 1.08054C34.625 0.993764 34.5513 0.92674 34.4609 0.894074C34.3706 0.861408 34.2709 0.86576 34.1838 0.906177C33.2422 1.34079 32.3291 1.83434 31.4498 2.38388C30.3671 3.06602 29.341 3.83393 28.3815 4.68021C28.818 4.92708 29.2389 5.20048 29.6419 5.49886C29.5561 5.47522 29.4703 5.44863 29.3816 5.42794L29.2987 5.40429L29.3786 5.43975C27.6801 4.9886 25.9403 4.71036 24.1858 4.60929H24.1H23.8278H23.739C23.3839 4.59155 23.0289 4.57973 22.6797 4.57086H22.3306H21.1943H20.9162H20.8452H20.5493H20.2327L19.6084 4.60339H19.3125L19.1143 4.61816H18.919H18.706L18.2888 4.65067H18.2059C16.4171 4.80009 14.6387 5.0547 12.8799 5.41316L12.9302 5.38952H12.8829L12.6876 5.43385C13.1009 5.1302 13.5317 4.85093 13.9777 4.59747C12.2431 3.07557 10.2978 1.81144 8.20197 0.844107C8.11482 0.803691 8.01519 0.799338 7.92484 0.832004C7.83449 0.86467 7.76075 0.931712 7.71968 1.01849C6.13346 4.41404 5.30941 8.11485 5.30524 11.8619C5.72497 11.3855 6.17568 10.9373 6.65446 10.5201C6.18992 11.1644 5.7402 11.8264 5.31412 12.5062C5.26382 12.583 5.21352 12.6628 5.16618 12.7426C3.68771 15.0506 2.63079 17.6022 2.04456 20.2789C2.04456 20.3084 2.04458 20.338 2.02979 20.3675C4.11395 22.0485 6.58187 23.1886 9.21389 23.6864C9.97561 23.8323 10.7492 23.9075 11.5248 23.911C13.1649 23.9478 14.7785 23.4939 16.1584 22.6077H16.1939C19.3781 21.4941 22.8385 21.4454 26.0528 22.4688H26.0824C27.2364 23.2372 28.7454 23.7692 30.7012 23.9672C30.9391 23.9909 31.1781 24.0028 31.4173 24.0027C34.3939 24.0027 37.7581 22.2678 40.2376 20.6601C40.2465 20.6896 40.2436 20.6631 40.2347 20.6335ZM7.57766 8.04938C7.48902 8.10505 7.38649 8.13474 7.28177 8.13508C7.19511 8.1349 7.10977 8.1136 7.03321 8.07302C6.94516 8.03054 6.87081 7.96429 6.81852 7.88176C6.76622 7.79924 6.73808 7.70373 6.73732 7.60607C6.74549 6.18589 6.9022 4.77046 7.20484 3.38281C7.31581 2.95655 7.49569 2.55126 7.73742 2.18291C7.80275 2.0825 7.88741 1.99605 7.98646 1.92857C8.08551 1.8611 8.19697 1.81394 8.31441 1.78984C8.55334 1.74006 8.80228 1.78682 9.00679 1.91988C9.49204 2.24202 10.0838 2.67646 10.646 3.10204C11.2082 3.52762 11.7408 3.96206 12.1254 4.26351C12.1837 4.30918 12.2299 4.36825 12.2603 4.43567C12.2907 4.50309 12.3044 4.57685 12.3 4.65067C12.2973 4.72424 12.2771 4.79612 12.2411 4.86036C12.2051 4.9246 12.1543 4.97934 12.0929 5.02009C11.1579 5.65846 8.8411 7.21595 7.57766 8.04938ZM10.359 13.9868C10.4093 13.2332 11.5159 12.6894 12.8208 12.778C14.1256 12.8667 15.1523 13.5465 15.102 14.3001C15.0759 14.4927 15.0007 14.6754 14.8836 14.8306C14.7665 14.9859 14.6115 15.1085 14.4333 15.1867C13.9632 15.4272 13.4405 15.547 12.9125 15.5354H12.6403C11.3325 15.4231 10.2968 14.7404 10.359 13.9868ZM16.0518 19.4839C16.0255 20.2432 15.7674 20.9764 15.3121 21.5851C15.1438 21.824 14.923 22.0212 14.6665 22.1616C14.4101 22.302 14.1248 22.3818 13.8327 22.3949H13.7499C13.4422 22.3671 13.1461 22.2637 12.888 22.0941C12.6299 21.9245 12.4178 21.6938 12.2704 21.4226C11.8854 20.7686 11.7089 20.0129 11.7644 19.2563C11.8532 17.5894 12.8888 16.3009 14.0694 16.3482C15.25 16.3955 16.1436 17.817 16.0518 19.4839ZM29.6212 21.4137C29.4739 21.685 29.2617 21.9156 29.0036 22.0852C28.7455 22.2549 28.4495 22.3582 28.1418 22.3861H28.0589C26.9109 22.3861 25.9226 21.1064 25.8339 19.4779C25.8339 19.3981 25.8339 19.3213 25.8339 19.2445C25.8339 17.6811 26.6919 16.3984 27.8193 16.3363C28.1268 16.334 28.4304 16.4065 28.7036 16.5476C28.9769 16.6886 29.2116 16.8941 29.3875 17.1461C29.8296 17.7608 30.0863 18.489 30.1272 19.2447C30.1681 20.0005 29.9915 20.7521 29.6183 21.4108L29.6212 21.4137ZM30.8965 15.0005C30.4018 15.3051 29.8377 15.479 29.2573 15.5059H28.9792C28.4906 15.5142 28.0063 15.4132 27.5618 15.2103C27.0914 14.9828 26.8192 14.6547 26.7955 14.2853C26.7718 13.9159 26.9967 13.5524 27.4317 13.2657C27.9272 12.9606 28.4923 12.7867 29.0738 12.7603C30.3816 12.6746 31.4853 13.2155 31.5356 13.9691C31.5622 14.3503 31.3344 14.7138 30.8965 15.0005ZM35.2105 8.13508C35.1058 8.13474 35.0033 8.10505 34.9146 8.04938C33.6571 7.21891 31.3344 5.65846 30.3965 5.02601C30.3351 4.98526 30.2842 4.9305 30.2482 4.86626C30.2122 4.80202 30.192 4.73016 30.1893 4.65658C30.185 4.58277 30.1986 4.509 30.229 4.44158C30.2594 4.37416 30.3057 4.31509 30.3639 4.26943C31.1036 3.67835 32.4972 2.55825 33.4707 1.90511C33.5714 1.83916 33.6841 1.79372 33.8024 1.77141C33.9208 1.74909 34.0423 1.75033 34.1601 1.77507C34.2776 1.79917 34.389 1.84632 34.4881 1.9138C34.5871 1.98128 34.6718 2.06771 34.7371 2.16812C34.9788 2.53647 35.1587 2.94178 35.2697 3.36803C35.5724 4.75569 35.729 6.17112 35.7372 7.59129C35.7364 7.68895 35.7083 7.78445 35.656 7.86697C35.6037 7.9495 35.5294 8.01577 35.4413 8.05825C35.3712 8.10102 35.2923 8.12728 35.2105 8.13508Z" fill="#143FFD"/>
<path d="M14.0695 16.3569C12.886 16.2949 11.8533 17.5982 11.7616 19.265C11.7057 20.0217 11.8822 20.7775 12.2676 21.4314C12.4156 21.7023 12.6278 21.9329 12.8858 22.1029C13.1437 22.2729 13.4394 22.3772 13.747 22.4066H13.8328C14.1251 22.3941 14.4106 22.3146 14.6671 22.1742C14.9237 22.0337 15.1444 21.8362 15.3122 21.5969C15.7658 20.9883 16.0237 20.2566 16.0519 19.4985C16.1377 17.8287 15.2501 16.4367 14.0695 16.3569ZM15.1199 18.9902C15.1066 19.2405 15.0281 19.4829 14.8921 19.6936C14.8463 19.7722 14.7818 19.8383 14.7045 19.8862C14.6271 19.9342 14.5391 19.9624 14.4483 19.9684H14.4216C14.0754 19.9448 13.8299 19.466 13.8654 18.9015C13.8787 18.6517 13.9583 18.41 14.0961 18.2011C14.1427 18.1174 14.211 18.0478 14.2937 17.9994C14.3765 17.9511 14.4708 17.9258 14.5666 17.9262C14.9098 17.9499 15.1584 18.4287 15.1199 18.9902Z" fill="black"/>
<path d="M15.1198 18.9903C15.1064 19.2406 15.0279 19.483 14.8919 19.6937C14.8461 19.7723 14.7817 19.8384 14.7043 19.8863C14.6269 19.9343 14.539 19.9625 14.4481 19.9685H14.4215C14.0753 19.9449 13.8297 19.4661 13.8652 18.9016C13.8786 18.6518 13.9582 18.4101 14.096 18.2012C14.1426 18.1175 14.2108 18.0479 14.2936 17.9995C14.3764 17.9512 14.4706 17.9259 14.5665 17.9263C14.9097 17.95 15.1582 18.4288 15.1198 18.9903Z" fill="white"/>
<path d="M15.0961 14.3146C15.0669 14.5039 14.9907 14.6829 14.8744 14.8352C14.7581 14.9875 14.6054 15.1083 14.4304 15.1865C13.9595 15.4246 13.4372 15.5434 12.9095 15.5323H12.6344C11.3266 15.4466 10.3057 14.7609 10.356 14.0073C10.4063 13.2537 11.51 12.7099 12.8178 12.7985C14.1256 12.8872 15.1464 13.561 15.0961 14.3146Z" fill="white"/>
<path d="M12.3001 4.66838C12.2966 4.74251 12.2757 4.8148 12.2393 4.87946C12.2028 4.94412 12.1517 4.99935 12.09 5.04076C11.155 5.67026 8.83526 7.22775 7.57182 8.06117C7.48444 8.11994 7.38127 8.15086 7.27594 8.14985C7.18791 8.15 7.10129 8.12761 7.0244 8.08482C6.9368 8.04256 6.86273 7.97676 6.81047 7.8948C6.75821 7.81285 6.72982 7.71798 6.72852 7.62082C6.73569 6.20042 6.89342 4.78479 7.199 3.39756C7.30811 2.97066 7.48812 2.56507 7.73158 2.19767C7.79741 2.0973 7.88242 2.01088 7.9817 1.94334C8.08099 1.8758 8.1926 1.82846 8.3102 1.80403C8.42781 1.77961 8.54908 1.77858 8.6671 1.80098C8.78511 1.82339 8.89755 1.8688 8.99798 1.93463C9.48324 2.25381 10.075 2.68826 10.6372 3.11679C11.1994 3.54532 11.732 3.97681 12.1166 4.27826C12.1763 4.32378 12.2242 4.38302 12.2561 4.45092C12.2881 4.51883 12.3031 4.59341 12.3001 4.66838Z" fill="#0630C9"/>
<path d="M40.3146 21.0885C40.3146 21.0353 40.2968 20.9821 40.285 20.9289L40.2495 20.7427C37.7699 22.3504 34.4057 24.0853 31.4291 24.0853C31.1865 24.0853 30.9468 24.0734 30.7101 24.0498C28.7306 23.8518 27.2216 23.3109 26.0617 22.5307C22.8474 21.5073 19.3869 21.556 16.2027 22.6696C14.8167 23.5713 13.1903 24.0338 11.5366 23.9966C10.761 23.9932 9.98742 23.918 9.22573 23.772C6.59221 23.276 4.12285 22.1357 2.03862 20.4531C1.9068 21.1365 1.81785 21.8274 1.77232 22.5219C1.74865 22.9031 1.73978 23.2844 1.74274 23.6597V23.9345C1.74274 24.2478 1.77235 24.5581 1.8049 24.8625C1.8049 24.9542 1.82561 25.0458 1.83744 25.1374C1.86999 25.4063 1.91435 25.6723 1.96465 25.9353C1.98536 26.0299 2.00314 26.1215 2.02385 26.2132C2.70735 27.4692 4.14239 29.7242 6.33491 31.2787C9.58966 33.5869 16.4809 34.4055 21.3867 34.4055C26.4434 34.4055 33.2813 33.3091 35.9916 31.2787C37.7436 29.9435 39.2053 28.2663 40.2879 26.3491C40.3086 26.2604 40.3264 26.1688 40.3442 26.0772C40.6405 24.4265 40.6305 22.7355 40.3146 21.0885Z" fill="white"/>
<path d="M25.9493 28.0662C25.6183 28.5219 25.1377 28.8471 24.5912 28.9853L24.4876 29.0119C24.1207 29.6799 23.0792 31.1694 21.1293 31.0807C20.4502 31.0442 19.7931 30.8275 19.2257 30.453C18.6583 30.0784 18.2011 29.5596 17.9012 28.9499L17.8006 28.9203C17.3581 28.8138 16.9588 28.5747 16.6563 28.235C16.3538 27.8953 16.1625 27.4714 16.1081 27.02V26.9491C16.1081 26.8929 16.1081 26.8397 16.1081 26.7865C16.0996 26.575 16.1195 26.3633 16.1673 26.157C16.3892 27.5017 17.0875 28.4622 18.4989 28.5213C18.9947 28.5538 19.4918 28.4812 19.9576 28.3085C20.1949 28.2123 20.4081 28.0653 20.5824 27.8779C20.7567 27.6905 20.8879 27.4673 20.9666 27.2239V27.2032L21.008 25.8556C19.209 25.7078 18.6794 23.9139 18.6794 23.9139C18.6794 23.9139 18.9013 22.7317 21.1708 22.7317C23.4402 22.7317 23.7568 23.8459 23.7568 23.8459C23.7568 23.8459 23.2805 25.693 21.4844 25.8438L21.4637 27.1737C21.5608 27.4962 21.7431 27.7867 21.9914 28.0145C22.2398 28.2423 22.5451 28.399 22.8751 28.4682C23.0829 28.5234 23.2963 28.5551 23.5112 28.5627C24.0027 28.6133 24.4982 28.5198 24.9374 28.2938C25.1709 28.1576 25.3727 27.9732 25.5292 27.7529C25.7318 27.5471 25.8961 27.307 26.0144 27.0436C26.1462 26.7644 26.2283 26.4644 26.257 26.157H26.2748C26.2748 26.2014 26.2748 26.2457 26.2926 26.293C26.3103 26.3402 26.2926 26.4467 26.3103 26.5265C26.3342 27.0631 26.2093 27.5959 25.9493 28.0662Z" fill="white"/>
<path d="M23.7064 29.0799C23.5422 29.0771 23.3782 29.0653 23.2153 29.0444L22.9697 29.009C22.8046 28.9778 22.6423 28.9334 22.4844 28.876C21.9501 28.6981 21.4962 28.3369 21.2032 27.8564C21.1388 27.9665 21.0656 28.0713 20.9843 28.1696C20.3659 28.9026 19.351 29.0858 18.4426 29.0119C18.2599 28.9995 18.0787 28.9708 17.9011 28.9262C18.2005 29.5363 18.6576 30.0555 19.2251 30.4301C19.7926 30.8047 20.45 31.0212 21.1293 31.0571C23.0792 31.1576 24.1177 29.668 24.4876 28.9883C24.2325 29.054 23.9698 29.0848 23.7064 29.0799ZM23.2094 29.8188C22.6699 30.3303 21.953 30.6131 21.2092 30.6079C20.4618 30.6089 19.7407 30.333 19.1853 29.8335L19.1675 29.8158V29.7892C19.3576 29.425 19.6459 29.1211 20 28.9122C20.354 28.7033 20.7596 28.5975 21.1707 28.607H21.1885C21.5984 28.5973 22.0031 28.6998 22.3589 28.9035C22.7146 29.1072 23.0077 29.4044 23.2064 29.7626V29.7863L23.2094 29.8188Z" fill="black"/>
<path d="M23.2183 29.7743C23.0196 29.4161 22.7265 29.119 22.3708 28.9153C22.015 28.7116 21.6103 28.609 21.2003 28.6188H21.1826C20.7715 28.6093 20.3659 28.715 20.0119 28.9239C19.6578 29.1328 19.3695 29.4367 19.1794 29.8009V29.8275L19.1972 29.8453C19.7526 30.3447 20.4737 30.6206 21.2211 30.6196C21.9649 30.6248 22.6818 30.342 23.2213 29.8305L23.239 29.8098L23.2183 29.7743ZM22.7833 30.0699C22.3163 30.3778 21.7688 30.5412 21.2092 30.5398C20.6524 30.54 20.1068 30.3833 19.6351 30.0876C19.6103 30.0736 19.5866 30.0578 19.5641 30.0403C19.5966 29.8453 19.7742 28.9971 20.434 28.9971C20.6012 28.9887 20.7664 29.0365 20.9032 29.133C21.04 29.2294 21.1404 29.3688 21.1885 29.529C21.2391 29.3691 21.3403 29.2299 21.4769 29.1324C21.6135 29.0348 21.7781 28.9842 21.946 28.9882C22.2026 29.0079 22.4416 29.1265 22.6122 29.319C22.7828 29.5115 22.8718 29.7628 22.8603 30.0196L22.7833 30.0699Z" fill="#E2817A"/>
<path d="M22.8601 30.0079L22.7832 30.0581C22.3162 30.3661 21.7687 30.5295 21.2091 30.528C20.6523 30.5283 20.1067 30.3716 19.635 30.0759C19.6102 30.0618 19.5865 30.046 19.564 30.0286C19.5965 29.8335 19.7741 28.9853 20.4339 28.9853C20.6011 28.977 20.7663 29.0248 20.9031 29.1213C21.0399 29.2177 21.1403 29.3571 21.1884 29.5173C21.239 29.3574 21.3402 29.2182 21.4768 29.1206C21.6134 29.0231 21.778 28.9725 21.9459 28.9765C22.2025 28.9962 22.4414 29.1148 22.6121 29.3073C22.7827 29.4998 22.8717 29.751 22.8601 30.0079Z" fill="#FCA89F"/>
<path d="M25.9492 28.0572C25.6171 28.5112 25.1368 28.8353 24.5911 28.9734C24.5573 28.985 24.5226 28.9939 24.4875 29C24.2319 29.0617 23.9691 29.0885 23.7063 29.0798C23.5421 29.077 23.3781 29.0652 23.2152 29.0443L22.9696 29.0089C22.8045 28.9777 22.6422 28.9332 22.4843 28.8759C21.95 28.698 21.4961 28.3367 21.2031 27.8563C21.1387 27.9664 21.0655 28.0712 20.9842 28.1695C20.3658 28.9025 19.3509 29.0857 18.4425 29.0118C18.2598 28.9994 18.0786 28.9707 17.901 28.9261L17.8004 28.8995C17.2746 28.763 16.8118 28.4499 16.4897 28.0129C16.3086 27.7427 16.1848 27.4385 16.1258 27.1188C16.0667 26.7992 16.0738 26.4708 16.1464 26.1539C16.3683 27.4986 17.0666 28.4592 18.478 28.5183C18.9738 28.5507 19.4709 28.4781 19.9367 28.3055C20.174 28.2092 20.3872 28.0622 20.5615 27.8748C20.7358 27.6874 20.867 27.4642 20.9457 27.2208V27.2001L20.9871 25.8407C19.1881 25.6929 18.6585 23.899 18.6585 23.899C18.6585 23.899 18.8804 22.7168 21.1499 22.7168C23.4193 22.7168 23.7359 23.831 23.7359 23.831C23.7359 23.831 23.2566 25.6781 21.4635 25.8289L21.4399 27.1676C21.5376 27.4907 21.7204 27.7815 21.9692 28.0098C22.218 28.238 22.5236 28.3953 22.8542 28.4651C23.062 28.5203 23.2754 28.552 23.4903 28.5596C23.9818 28.6102 24.4774 28.5167 24.9165 28.2907C25.1501 28.1545 25.3518 27.9702 25.5083 27.7499C25.7109 27.5441 25.8752 27.3039 25.9936 27.0406C26.1253 26.7613 26.2074 26.4613 26.2362 26.1539H26.2539C26.3643 26.8046 26.2572 27.4734 25.9492 28.0572Z" fill="black"/>
<path d="M29.3787 5.44557C27.6802 4.99442 25.9404 4.71618 24.1858 4.61511H24.1001C23.6237 4.5826 23.1473 4.56486 22.6798 4.556H22.3307H21.1944H20.9163H20.8453H20.5494C20.4429 4.556 20.3364 4.556 20.2328 4.556C19.9162 4.556 19.6055 4.58556 19.3008 4.60329L19.1025 4.61807H18.9072H18.6942L18.277 4.65057H18.1941C16.4053 4.79999 14.6269 5.0546 12.8682 5.41307L12.9185 5.38942C15.6631 4.12062 18.662 3.49587 21.6856 3.56299C24.3075 3.66021 26.8849 4.26967 29.2722 5.35691L29.3787 5.44557Z" fill="#0630C9"/>
<path d="M30.1212 19.262C30.0934 18.5029 29.8354 17.7701 29.3815 17.1607C29.2064 16.9081 28.9717 16.7024 28.6983 16.5617C28.4248 16.421 28.1209 16.3496 27.8133 16.3539C26.6889 16.413 25.8279 17.6956 25.8279 19.259C25.8279 19.3359 25.8279 19.4157 25.8279 19.4925C25.9137 21.1209 26.9049 22.4036 28.05 22.4036H28.1329C28.44 22.374 28.7354 22.2699 28.9932 22.1005C29.251 21.931 29.4635 21.7013 29.6123 21.4313C29.9985 20.7766 30.176 20.0199 30.1212 19.262ZM27.4582 19.9654H27.4286C27.0943 19.9654 26.7984 19.5339 26.757 18.9871C26.757 18.9458 26.757 18.9073 26.757 18.866C26.757 18.3576 26.9937 17.9439 27.3162 17.9202C27.6387 17.8966 27.9731 18.334 28.0145 18.8985C28.0559 19.463 27.8103 19.9388 27.4582 19.9654Z" fill="black"/>
<path d="M27.4583 19.9655H27.4287C27.0944 19.9655 26.7985 19.534 26.7571 18.9872C26.7571 18.9459 26.7571 18.9074 26.7571 18.8661C26.7571 18.3577 26.9938 17.944 27.3163 17.9203C27.6388 17.8967 27.9732 18.3341 28.0146 18.8986C28.056 19.4631 27.8104 19.9389 27.4583 19.9655Z" fill="white"/>
<path d="M30.8934 15.0123C30.3985 15.3187 29.8331 15.4927 29.2513 15.5177H28.9732C28.4848 15.5242 28.0009 15.4233 27.5559 15.2222C27.0854 14.9916 26.8132 14.6636 26.7896 14.2942C26.795 14.0826 26.8571 13.8764 26.9696 13.6971C27.082 13.5177 27.2404 13.3718 27.4286 13.2745C27.9232 12.97 28.4874 12.7961 29.0679 12.7692C30.3786 12.6835 31.4822 13.2243 31.5296 13.9809C31.5562 14.368 31.3284 14.7256 30.8934 15.0123Z" fill="white"/>
<path d="M35.7433 7.62082C35.7425 7.76088 35.6865 7.89499 35.5873 7.99403C35.4882 8.09307 35.3539 8.14907 35.2137 8.14985C35.1083 8.15086 35.0052 8.11994 34.9178 8.06117C33.6573 7.2307 31.3376 5.67026 30.3967 5.04076C30.3354 4.9992 30.2847 4.94387 30.2487 4.87919C30.2127 4.81452 30.1925 4.7423 30.1895 4.66838C30.1859 4.59466 30.1998 4.52113 30.2302 4.45383C30.2605 4.38653 30.3064 4.32738 30.3641 4.28122C31.1068 3.69014 32.4974 2.573 33.4709 1.93463C33.5713 1.8688 33.6838 1.82339 33.8018 1.80098C33.9198 1.77858 34.0411 1.77961 34.1587 1.80403C34.2763 1.82846 34.3879 1.8758 34.4872 1.94334C34.5865 2.01088 34.6715 2.0973 34.7373 2.19767C34.9808 2.56507 35.1608 2.97066 35.2699 3.39756C35.5778 4.78446 35.7365 6.20024 35.7433 7.62082Z" fill="#0630C9"/>
<path d="M21.5939 40.7332C21.0327 40.7332 20.4841 40.5669 20.0174 40.2555C19.5508 39.9441 19.1871 39.5014 18.9723 38.9835C18.7576 38.4656 18.7014 37.8958 18.8109 37.346C18.9204 36.7962 19.1906 36.2912 19.5874 35.8948C19.9843 35.4985 20.4899 35.2285 21.0403 35.1192C21.5908 35.0098 22.1613 35.0659 22.6798 35.2804C23.1983 35.495 23.6415 35.8582 23.9532 36.3243C24.265 36.7904 24.4315 37.3384 24.4315 37.8989C24.4307 38.6504 24.1315 39.3708 23.5995 39.9022C23.0675 40.4335 22.3462 40.7324 21.5939 40.7332Z" fill="black"/>
<path d="M21.5939 35.7383C21.1654 35.7383 20.7465 35.8653 20.3903 36.1031C20.034 36.341 19.7564 36.679 19.5926 37.0745C19.4287 37.47 19.386 37.9051 19.4698 38.3248C19.5536 38.7446 19.7602 39.13 20.0634 39.4325C20.3666 39.7349 20.7528 39.9407 21.1731 40.0238C21.5935 40.107 22.0291 40.0637 22.4248 39.8995C22.8205 39.7353 23.1586 39.4576 23.3962 39.1014C23.6338 38.7453 23.7604 38.3267 23.7598 37.8987C23.759 37.3255 23.5305 36.776 23.1244 36.3709C22.7183 35.9658 22.1678 35.7383 21.5939 35.7383Z" fill="#143FFD"/>
<path d="M53.156 23.9376C52.7475 23.9322 52.3573 23.7676 52.0688 23.4788C51.7802 23.19 51.6161 22.7999 51.6115 22.3919V6.7608C51.6089 6.55952 51.6468 6.35978 51.7231 6.17345C51.7993 5.98712 51.9123 5.81801 52.0553 5.67617C52.3435 5.38592 52.7349 5.22124 53.1442 5.21807L58.6447 5.19148C60.184 5.1537 61.6773 5.71665 62.8078 6.7608C63.3488 7.24271 63.7797 7.83523 64.0712 8.49814C64.3627 9.16106 64.5081 9.87886 64.4973 10.6029C64.5029 11.3134 64.363 12.0176 64.0862 12.6722C63.8094 13.3268 63.4016 13.918 62.8877 14.4094C63.502 14.8875 63.9969 15.5015 64.3332 16.203C64.6695 16.9046 64.8381 17.6746 64.8258 18.4524C64.8323 19.184 64.6811 19.9084 64.3824 20.5764C64.0837 21.2445 63.6446 21.8405 63.0948 22.324C61.9816 23.3869 60.4921 23.966 58.9524 23.9347L53.156 23.9376ZM54.7005 13.0529H58.6565C59.3697 13.0637 60.061 12.8075 60.5946 12.3347C60.8479 12.1232 61.0518 11.8588 61.1919 11.5601C61.3319 11.2614 61.4048 10.9356 61.4053 10.6058C61.4074 10.2886 61.3365 9.97514 61.1979 9.6897C61.0594 9.40426 60.857 9.15447 60.6064 8.95962C60.0621 8.50145 59.368 8.25948 58.6565 8.27988L54.7005 8.30351V13.0529ZM54.7005 20.8492H58.9583C59.6784 20.8659 60.3788 20.6141 60.923 20.1429C61.1773 19.9413 61.3825 19.6847 61.5229 19.3924C61.6634 19.1 61.7355 18.7796 61.7337 18.4554C61.734 18.1401 61.6622 17.829 61.5237 17.5458C61.3853 17.2625 61.1839 17.0146 60.9349 16.821C60.3906 16.3628 59.6965 16.1209 58.985 16.1413H54.7005V20.8492Z" fill="black"/>
<path d="M69.6637 5.17969C70.0724 5.18353 70.4633 5.34722 70.7526 5.63562C71.0419 5.92403 71.2065 6.31419 71.2111 6.72242V20.8492H78.1379C78.3429 20.8465 78.5463 20.8858 78.7356 20.9646C78.9249 21.0434 79.0961 21.16 79.2386 21.3073C79.5232 21.5973 79.6826 21.9873 79.6826 22.3934C79.6826 22.7996 79.5232 23.1895 79.2386 23.4795C79.0961 23.6269 78.9249 23.7435 78.7356 23.8223C78.5463 23.901 78.3429 23.9403 78.1379 23.9376H69.6637C69.2552 23.9322 68.865 23.7676 68.5764 23.4788C68.2878 23.19 68.1237 22.8 68.1191 22.392V6.72833C68.1238 6.32061 68.288 5.93087 68.5766 5.64255C68.8653 5.35423 69.2555 5.19021 69.6637 5.1856V5.17969Z" fill="black"/>
<path d="M93.311 5.17955C93.7138 5.17954 94.1002 5.33919 94.3854 5.62343C94.6705 5.90768 94.831 6.2933 94.8318 6.69567V17.2375C94.8318 19.0121 94.126 20.714 92.8698 21.9688C91.6135 23.2236 89.9096 23.9286 88.133 23.9286C86.3563 23.9286 84.6524 23.2236 83.3961 21.9688C82.1399 20.714 81.4341 19.0121 81.4341 17.2375V6.68385C81.4514 6.29295 81.619 5.92378 81.902 5.65327C82.1851 5.38276 82.5617 5.23177 82.9535 5.23177C83.3452 5.23177 83.7218 5.38276 84.0049 5.65327C84.2879 5.92378 84.4555 6.29295 84.4728 6.68385V17.2257C84.4728 18.1953 84.8585 19.1252 85.5449 19.8108C86.2313 20.4964 87.1622 20.8815 88.133 20.8815C89.1037 20.8815 90.0346 20.4964 90.721 19.8108C91.4074 19.1252 91.7931 18.1953 91.7931 17.2257V6.68385C91.7927 6.48464 91.8317 6.28732 91.9078 6.1032C91.984 5.91908 92.0957 5.75179 92.2368 5.61093C92.3778 5.47007 92.5453 5.3584 92.7297 5.28235C92.914 5.20629 93.1115 5.16734 93.311 5.16773V5.17955Z" fill="black"/>
<path d="M109.768 20.8372C109.971 20.8332 110.172 20.8716 110.359 20.9499C110.546 21.0283 110.715 21.145 110.854 21.2923C111.002 21.4345 111.118 21.6055 111.197 21.7946C111.276 21.9837 111.315 22.1869 111.313 22.3917C111.308 22.7997 111.144 23.1898 110.855 23.4786C110.567 23.7674 110.177 23.932 109.768 23.9374H100.3C99.8907 23.9328 99.4998 23.7685 99.2105 23.4796C98.9213 23.1907 98.7568 22.8003 98.7522 22.3917V6.70745C98.7485 6.50294 98.7874 6.29988 98.8663 6.11114C98.9453 5.92241 99.0626 5.7521 99.2108 5.61099C99.35 5.46257 99.5188 5.34506 99.7064 5.26614C99.894 5.18721 100.096 5.14864 100.3 5.15291L109.768 5.1795C109.973 5.17644 110.176 5.21524 110.365 5.2935C110.555 5.37177 110.726 5.48786 110.869 5.63464C111.012 5.77922 111.125 5.95092 111.202 6.1397C111.278 6.32847 111.316 6.53052 111.313 6.73404C111.308 7.14205 111.144 7.53209 110.855 7.82089C110.567 8.10968 110.177 8.27436 109.768 8.27973L101.856 8.25312V12.9995H107.567C107.771 12.9968 107.973 13.0349 108.162 13.1115C108.351 13.1882 108.523 13.3018 108.667 13.4457C108.813 13.5895 108.928 13.7605 109.006 13.9489C109.085 14.1374 109.126 14.3395 109.126 14.5437C109.126 14.7478 109.085 14.95 109.006 15.1384C108.928 15.3269 108.813 15.4979 108.667 15.6416C108.523 15.7861 108.352 15.9001 108.163 15.9768C107.973 16.0534 107.771 16.0912 107.567 16.0879H101.856V20.8372H109.768Z" fill="black"/>
<path d="M63.5564 31.2757C63.761 31.2732 63.9639 31.3126 64.1527 31.3914C64.3415 31.4701 64.5121 31.5866 64.6541 31.7337C64.7988 31.8776 64.9129 32.0491 64.9897 32.238C65.0665 32.4269 65.1043 32.6293 65.1009 32.8331C65.0956 33.2406 64.9311 33.6299 64.6426 33.9181C64.3541 34.2063 63.9644 34.3705 63.5564 34.3759L55.6474 34.3493V39.0986H61.358C61.5616 39.0953 61.7638 39.1331 61.9524 39.2098C62.1411 39.2865 62.3123 39.4005 62.4557 39.5449C62.6009 39.6886 62.7162 39.8596 62.7948 40.048C62.8735 40.2365 62.914 40.4386 62.914 40.6428C62.914 40.847 62.8735 41.0491 62.7948 41.2376C62.7162 41.426 62.6009 41.597 62.4557 41.7407C62.3123 41.8851 62.1411 41.9991 61.9524 42.0758C61.7638 42.1524 61.5616 42.1903 61.358 42.187H55.6474V48.4909C55.6509 48.6936 55.6118 48.8948 55.5329 49.0816C55.4539 49.2684 55.3367 49.4366 55.1887 49.5755C55.0471 49.7239 54.8761 49.8413 54.6866 49.9202C54.4971 49.9991 54.2933 50.0377 54.088 50.0336C53.6801 50.0282 53.2903 49.8639 53.0018 49.5758C52.7133 49.2876 52.5489 48.8983 52.5435 48.4909V32.8065C52.5394 32.6015 52.578 32.3979 52.657 32.2087C52.736 32.0194 52.8535 31.8486 53.0021 31.7071C53.1412 31.5595 53.3097 31.4425 53.4967 31.3636C53.6837 31.2848 53.8851 31.2457 54.088 31.249L63.5564 31.2757Z" fill="black"/>
<path d="M68.7227 31.2759C69.1312 31.2813 69.5214 31.4459 69.81 31.7347C70.0986 32.0235 70.2627 32.4135 70.2673 32.8215V46.9484H77.1969C77.4017 46.9447 77.605 46.9835 77.794 47.0623C77.9829 47.1412 78.1534 47.2584 78.2947 47.4064C78.5813 47.6949 78.7421 48.0847 78.7421 48.4911C78.7421 48.8974 78.5813 49.2873 78.2947 49.5757C78.1534 49.7238 77.9829 49.841 77.794 49.9198C77.605 49.9987 77.4017 50.0375 77.1969 50.0338H68.7227C68.3148 50.0284 67.925 49.8642 67.6365 49.576C67.348 49.2879 67.1836 48.8986 67.1782 48.4911V32.8275C67.1828 32.4195 67.3469 32.0294 67.6355 31.7406C67.9241 31.4518 68.3143 31.2872 68.7227 31.2818V31.2759Z" fill="black"/>
<path d="M89.0026 50.0336C86.826 50.0351 84.7161 49.2828 83.0325 47.9048C81.3488 46.5268 80.1956 44.6084 79.7692 42.4764C79.3428 40.3444 79.6697 38.1306 80.6941 36.2123C81.7185 34.294 83.3772 32.7898 85.3874 31.956C87.3976 31.1221 89.6351 31.0102 91.7187 31.6393C93.8022 32.2683 95.603 33.5995 96.8142 35.406C98.0254 37.2124 98.572 39.3825 98.361 41.5463C98.1501 43.7102 97.1945 45.7341 95.6571 47.2733C94.7972 48.1652 93.7626 48.8707 92.6177 49.3456C91.4728 49.8205 90.2422 50.0547 89.0026 50.0336ZM89.0026 34.3375C87.5451 34.34 86.1334 34.8471 85.0081 35.7724C83.8827 36.6977 83.1133 37.984 82.8308 39.4123C82.5482 40.8406 82.7701 42.3225 83.4586 43.6058C84.1471 44.889 85.2596 45.8943 86.6067 46.4503C87.9538 47.0063 89.4522 47.0788 90.8467 46.6553C92.2413 46.2319 93.4458 45.3387 94.2552 44.1279C95.0645 42.917 95.4287 41.4634 95.2856 40.0146C95.1426 38.5657 94.5011 37.2112 93.4705 36.1816C92.8923 35.5846 92.1972 35.1128 91.4286 34.7955C90.6599 34.4782 89.8342 34.3223 89.0026 34.3375Z" fill="black"/>
<path d="M103.232 49.9154C102.827 49.9138 102.439 49.7523 102.152 49.4661C101.866 49.1799 101.704 48.7922 101.702 48.3874V32.845C101.704 32.4402 101.866 32.0525 102.152 31.7663C102.439 31.4801 102.827 31.3186 103.232 31.317C103.435 31.3142 103.637 31.3531 103.824 31.4314C104.011 31.5097 104.18 31.6257 104.321 31.7722C104.464 31.9118 104.576 32.0788 104.653 32.2632C104.729 32.4476 104.767 32.6455 104.765 32.845V39.7281L112.257 31.8638C112.394 31.7154 112.56 31.5963 112.745 31.5135C112.929 31.4307 113.128 31.386 113.331 31.3821C113.532 31.3753 113.732 31.4102 113.919 31.4844C114.106 31.5587 114.275 31.6707 114.417 31.8135C114.71 32.0928 114.88 32.4768 114.89 32.8813C114.9 33.2857 114.749 33.6776 114.47 33.971L108.182 40.5763L114.718 47.4446C114.858 47.5911 114.967 47.7636 115.039 47.9523C115.111 48.141 115.145 48.3422 115.139 48.5441C115.129 48.8462 115.031 49.1389 114.856 49.3855C114.681 49.6321 114.437 49.8216 114.155 49.9305C113.872 50.0393 113.564 50.0625 113.269 49.9973C112.973 49.932 112.703 49.7812 112.493 49.5637L106.061 42.8017L104.765 44.173V48.3874C104.767 48.5869 104.729 48.7848 104.653 48.9692C104.576 49.1535 104.464 49.3206 104.321 49.4602C104.18 49.6067 104.011 49.7227 103.824 49.801C103.637 49.8793 103.435 49.9182 103.232 49.9154Z" fill="black"/>
<path d="M119.455 50.0336C119.047 50.029 118.656 49.8651 118.367 49.5768C118.078 49.2886 117.913 48.8989 117.908 48.4909V32.8863C117.925 32.4885 118.096 32.1127 118.384 31.8373C118.672 31.562 119.055 31.4082 119.454 31.4082C119.853 31.4082 120.236 31.562 120.524 31.8373C120.812 32.1127 120.983 32.4885 121 32.8863V48.4909C120.995 48.8984 120.83 49.2876 120.542 49.5758C120.253 49.864 119.863 50.0282 119.455 50.0336Z" fill="black"/>
</svg>
